<svg width="20" height="20" viewBox="0 0 16 16" fill="none" xmlns="http://www.w3.org/2000/svg"><g id="icon/å&shy;å¹"><path id="Vector" fill-rule="evenodd" clip-rule="evenodd" d="M13.3332 4.00002H2.6665C2.29831 4.00002 1.99984 4.2985 1.99984 4.66669V11.3334C1.99984 11.7015 2.29831 12 2.6665 12H13.3332C13.7014 12 13.9998 11.7015 13.9998 11.3334V4.66669C13.9998 4.2985 13.7014 4.00002 13.3332 4.00002ZM2.6665 2.66669C1.56193 2.66669 0.666504 3.56212 0.666504 4.66669V11.3334C0.666504 12.4379 1.56193 13.3334 2.6665 13.3334H13.3332C14.4377 13.3334 15.3332 12.4379 15.3332 11.3334V4.66669C15.3332 3.56212 14.4377 2.66669 13.3332 2.66669H2.6665Z" fill="currentColor"></path><g id="CC"><path id="Vector_2" d="M11.4858 9.25866L11.6178 9.16332C11.784 9.06555 11.9013 9.01666 11.9698 9.01666C12.1213 9.01666 12.2851 9.15355 12.4611 9.42732C12.5686 9.59843 12.6224 9.73532 12.6224 9.83799C12.6224 9.94066 12.5882 10.0262 12.5198 10.0947C12.4562 10.1631 12.3804 10.2242 12.2924 10.278C12.2044 10.3318 12.1189 10.3831 12.0358 10.432C11.9575 10.4809 11.7938 10.5444 11.5444 10.6227C11.2951 10.7009 11.0531 10.74 10.8184 10.74C10.5886 10.74 10.354 10.7107 10.1144 10.652C9.87976 10.5884 9.63531 10.4858 9.38109 10.344C9.13176 10.1973 8.90687 10.0213 8.70642 9.81599C8.50598 9.60577 8.33976 9.33932 8.20776 9.01666C8.08065 8.6891 8.01709 8.33466 8.01709 7.95332C8.01709 7.57199 8.08065 7.22732 8.20776 6.91932C8.33487 6.60643 8.4962 6.34977 8.69176 6.14932C8.8922 5.94399 9.11953 5.77288 9.37376 5.63599C9.85287 5.37199 10.3344 5.23999 10.8184 5.23999C11.0482 5.23999 11.2804 5.27666 11.5151 5.34999C11.7546 5.41843 11.9355 5.48932 12.0578 5.56266L12.2338 5.66532C12.3218 5.7191 12.3902 5.7631 12.4391 5.79732C12.5662 5.89999 12.6298 6.01732 12.6298 6.14932C12.6298 6.27643 12.5784 6.41088 12.4758 6.55266C12.2851 6.81666 12.114 6.94866 11.9624 6.94866C11.8744 6.94866 11.7498 6.89488 11.5884 6.78732C11.3831 6.6211 11.1093 6.53799 10.7671 6.53799C10.4493 6.53799 10.1364 6.64799 9.82842 6.86799C9.68176 6.97555 9.55953 7.1271 9.46176 7.32266C9.36398 7.51821 9.31509 7.74066 9.31509 7.98999C9.31509 8.23443 9.36398 8.45443 9.46176 8.64999C9.55953 8.84555 9.6842 8.99955 9.83576 9.11199C10.134 9.3271 10.4444 9.43466 10.7671 9.43466C10.9186 9.43466 11.0604 9.4151 11.1924 9.37599C11.3293 9.33688 11.4271 9.29777 11.4858 9.25866Z" fill="currentColor"></path><path id="Vector_3" d="M6.65177 9.25866L6.78377 9.16332C6.94999 9.06555 7.06733 9.01666 7.13577 9.01666C7.28733 9.01666 7.45111 9.15355 7.62711 9.42732C7.73466 9.59843 7.78844 9.73532 7.78844 9.83799C7.78844 9.94066 7.75422 10.0262 7.68577 10.0947C7.62222 10.1631 7.54644 10.2242 7.45844 10.278C7.37044 10.3318 7.28488 10.3831 7.20177 10.432C7.12355 10.4809 6.95977 10.5444 6.71044 10.6227C6.46111 10.7009 6.21911 10.74 5.98444 10.74C5.75466 10.74 5.51999 10.7107 5.28044 10.652C5.04577 10.5884 4.80133 10.4858 4.54711 10.344C4.29777 10.1973 4.07288 10.0213 3.87244 9.81599C3.67199 9.60577 3.50577 9.33932 3.37377 9.01666C3.24666 8.6891 3.18311 8.33466 3.18311 7.95332C3.18311 7.57199 3.24666 7.22732 3.37377 6.91932C3.50088 6.60643 3.66222 6.34977 3.85777 6.14932C4.05822 5.94399 4.28555 5.77288 4.53977 5.63599C5.01888 5.37199 5.50044 5.23999 5.98444 5.23999C6.21422 5.23999 6.44644 5.27666 6.68111 5.34999C6.92066 5.41843 7.10155 5.48932 7.22377 5.56266L7.39977 5.66532C7.48777 5.7191 7.55622 5.7631 7.6051 5.79732C7.73222 5.89999 7.79577 6.01732 7.79577 6.14932C7.79577 6.27643 7.74444 6.41088 7.64177 6.55266C7.45111 6.81666 7.27999 6.94866 7.12844 6.94866C7.04044 6.94866 6.91577 6.89488 6.75444 6.78732C6.54911 6.6211 6.27533 6.53799 5.93311 6.53799C5.61533 6.53799 5.30244 6.64799 4.99444 6.86799C4.84777 6.97555 4.72555 7.1271 4.62777 7.32266C4.52999 7.51821 4.48111 7.74066 4.48111 7.98999C4.48111 8.23443 4.52999 8.45443 4.62777 8.64999C4.72555 8.84555 4.85022 8.99955 5.00177 9.11199C5.29999 9.3271 5.61044 9.43466 5.93311 9.43466C6.08466 9.43466 6.22644 9.4151 6.35844 9.37599C6.49533 9.33688 6.59311 9.29777 6.65177 9.25866Z" fill="currentColor"></path></g></g></svg>